<svg width="24" height="27" viewBox="0 0 24 27" fill="none" xmlns="http://www.w3.org/2000/svg">
<path d="M23.7131 24.8236L18.017 19.029C19.8744 17.0765 21.0508 14.4312 21.0508 11.4709C21.0508 5.55037 16.3453 0.76355 10.5254 0.76355C4.70548 0.76355 0 5.55037 0 11.4709C0 17.3915 4.70548 22.1783 10.5254 22.1783C12.7543 22.1783 14.8594 21.4225 16.593 20.2257L22.4129 26.1463C22.5987 26.3352 22.8463 26.3982 23.094 26.3982C23.3416 26.3982 23.5893 26.3352 23.775 26.1463C24.0846 25.7684 24.0846 25.2015 23.7131 24.8236ZM1.85742 11.4709C1.85742 6.62111 5.75802 2.65308 10.5254 2.65308C15.2928 2.65308 19.1934 6.62111 19.1934 11.4709C19.1934 16.3207 15.2928 20.2887 10.5254 20.2887C5.75802 20.2887 1.85742 16.3207 1.85742 11.4709Z" fill="#313133"/>
</svg>
